<svg width="30" height="41" viewBox="0 0 30 41" fill="none" xmlns="http://www.w3.org/2000/svg">
<path fill-rule="evenodd" clip-rule="evenodd" d="M26.5 25C28.5 22 30 18.6913 30 14.7869C30 6.62031 23.2843 0 15 0C6.71573 0 0 6.62031 0 14.7869C0 18.6907 1.5 22 3.5 25L14.9996 41L26.5 25Z" fill="#FF3E3D"/>
<circle cx="15" cy="15" r="12" fill="white"/>
<path d="M19.9129 9.26855H9.91504C10.3678 10.6157 10.3678 12.0826 9.91504 13.4297H19.9129V9.26855Z" fill="#FF3E3D"/>
<path d="M9.91504 20.2686H19.9129C19.4601 18.9214 19.4601 17.4546 19.9129 16.1074H9.91504V20.2686Z" fill="#FF3E3D"/>
<path d="M18.8156 11.2436L9.91309 16.0957L11.0091 18.2666L19.9116 13.4145L18.8156 11.2436Z" fill="#FF3E3D"/>
</svg>
